{
  "title": "The.Water.Diviner.2014.LIMITED.1080p.BluRay.H264.AAC-RARBG",
  "uid": 11761390,
  "size": 2284466789,
  "categoryP": "video",
  "categoryS": "hd___movies",
  "magnet": "?xt=urn:btih:35152196cc0ebf5118cd5ab48b6a65c9f3599dfc&amp;dn=The.Water.Diviner.2014.LIMITED.1080p.BluRay.H264.AAC-RARBG&amp;tr=udp%3A%2F%2Ftracker.openbittorrent.com%3A80&amp;tr=udp%3A%2F%2Fopen.demonii.com%3A1337&amp;tr=udp%3A%2F%2Ftracker.coppersurfer.tk%3A6969&amp;tr=udp%3A%2F%2Fexodus.desync.com%3A6969",
  "seeders": 47,
  "leechers": 12,
  "uploader": "vickey1992",
  "files": 8,
  "time": 1426553940,
  "description": "\n\nMediaInfo\n\nVideo\nID : 1\nFormat : AVC\nFormat/Info : Advanced Video Codec\nFormat profile : &lt;a class=&quot;__cf_email__&quot; href=&quot;/cdn-cgi/l/email-protection&quot; data-cfemail=&quot;afe7c6c8c7efe39b819e&quot;&gt;[email&amp;#160;protected]&lt;/a&gt;&lt;script cf-hash='f9e31' type=&quot;text/javascript&quot;&gt;\n/* &lt;![CDATA[ */!function(){try{var t=&quot;currentScript&quot;in document?document.currentScript:function(){for(var t=document.getElementsByTagName(&quot;script&quot;),e=t.length;e--;)if(t[e].getAttribute(&quot;cf-hash&quot;))return t[e]}();if(t&amp;&amp;t.previousSibling){var e,r,n,i,c=t.previousSibling,a=c.getAttribute(&quot;data-cfemail&quot;);if(a){for(e=&quot;&quot;,r=parseInt(a.substr(0,2),16),n=2;a.length-n;n+=2)i=parseInt(a.substr(n,2),16)^r,e+=String.fromCharCode(i);e=document.createTextNode(e),c.parentNode.replaceChild(e,c)}}}catch(u){}}();/* ]]&gt; */&lt;/script&gt;\nFormat settings, CABAC : Yes\nFormat settings, ReFrames : 4 frames\nCodec ID : avc1\nCodec ID/Info : Advanced Video Coding\nDuration : 1h 51mn\nBit rate : 2 500 Kbps\nWidth : 1 920 pixels\nHeight : 808 pixels\nDisplay aspect ratio : 2.40:1\nFrame rate mode : Constant\nFrame rate : 24.000 fps\nColor space : YUV\nChroma subsampling : 4:2:0\nBit depth : 8 bits\nScan type : Progressive\nBits/(Pixel*Frame) : 0.067\nStream size : 1.94 GiB (92%)\nWriting library : x264 core 144 r2525M 40bb568\nEncoding settings : cabac=1 / ref=4 / deblock=1:-1:-1 / analyse=0x3:0x113 / me=umh / subme=9 / psy=1 / psy_rd=1.00:0.15 / mixed_ref=1 / me_range=24 / chroma_me=1 / trellis=2 / 8x8dct=1 / cqm=0 / deadzone=21,11 / fast_pskip=1 / chroma_qp_offset=-3 / threads=32 / lookahead_threads=4 / sliced_threads=0 / nr=0 / decimate=1 / interlaced=0 / bluray_compat=0 / constrained_intra=0 / bframes=3 / b_pyramid=2 / b_adapt=1 / b_bias=0 / direct=1 / weightb=1 / open_gop=0 / weightp=2 / keyint=250 / keyint_min=25 / scenecut=40 / intra_refresh=0 / rc_lookahead=50 / rc=2pass / mbtree=1 / bitrate=2500 / ratetol=1.0 / qcomp=0.60 / qpmin=0 / qpmax=69 / qpstep=4 / cplxblur=20.0 / qblur=0.5 / vbv_maxrate=31250 / vbv_bufsize=31250 / nal_hrd=none / filler=0 / ip_ratio=1.40 / aq=3:1.00\nEncoded date : UTC 1904-01-01 00:00:00\nTagged date : UTC 1904-01-01 00:00:00\n\nAudio\nID : 2\nFormat : AAC\nFormat/Info : Advanced Audio Codec\nFormat profile : LC\nCodec ID : 40\nDuration : 1h 51mn\nBit rate mode : Constant\nBit rate : 224 Kbps\nChannel(s) : 2 channels\nChannel(s)_Original : 6 channels\nChannel positions : Front: L C R, Side: L R, LFE\nSampling rate : 48.0 KHz\nCompression mode : Lossy\nStream size : 178 MiB (8%)\nLanguage : English\nEncoded date : UTC 1904-01-01 00:00:00\nTagged date : UTC 1904-01-01 00:00:00\n\nMenu #1\nID : 3\nCodec ID : text\nDuration : 1h 51mn\nLanguage : English\nEncoded date : UTC 1904-01-01 00:00:00\nTagged date : UTC 1904-01-01 00:00:00\nBit rate mode : CBR\n00:00:00.000 : 00:00:00.000\n00:05:15.543 : 00:05:15.500\n00:09:00.251 : 00:09:00.208\n00:13:08.251 : 00:13:08.208\n00:16:47.751 : 00:16:47.708\n00:21:29.043 : 00:21:29.000\n00:26:53.210 : 00:26:53.167\n00:31:16.251 : 00:31:16.208\n00:36:21.501 : 00:36:21.458\n00:40:11.918 : 00:40:11.875\n00:50:31.668 : 00:50:31.625\n00:57:20.001 : 00:57:19.958\n01:03:33.501 : 01:03:33.458\n01:07:55.835 : 01:07:55.792\n01:15:38.335 : 01:15:38.292\n01:19:05.293 : 01:19:05.250\n01:23:31.501 : 01:23:31.458\n01:30:25.335 : 01:30:25.292\n01:40:02.418 : 01:40:02.375\n01:45:05.043 : 01:45:05.000\n\nMenu #2\n00:00:00.043 : 00:00:00.000\n00:05:15.543 : 00:05:15.500\n00:09:00.251 : 00:09:00.208\n00:13:08.251 : 00:13:08.208\n00:16:47.751 : 00:16:47.708\n00:21:29.043 : 00:21:29.000\n00:26:53.210 : 00:26:53.167\n00:31:16.251 : 00:31:16.208\n00:36:21.501 : 00:36:21.458\n00:40:11.918 : 00:40:11.875\n00:50:31.668 : 00:50:31.625\n00:57:20.001 : 00:57:19.958\n01:03:33.501 : 01:03:33.458\n01:07:55.835 : 01:07:55.792\n01:15:38.335 : 01:15:38.292\n01:19:05.293 : 01:19:05.250\n01:23:31.501 : 01:23:31.458\n01:30:25.335 : 01:30:25.292\n01:40:02.418 : 01:40:02.375\n01:45:05.043 : 01:45:05.000",
  "parsed": {
    "xt": "urn:btih:35152196cc0ebf5118cd5ab48b6a65c9f3599dfc",
    "dn": "The.Water.Diviner.2014.LIMITED.1080p.BluRay.H264.AAC-RARBG",
    "tr": [
      "udp://exodus.desync.com:6969",
      "udp://open.demonii.com:1337",
      "udp://tracker.coppersurfer.tk:6969",
      "udp://tracker.openbittorrent.com:80"
    ],
    "infoHash": "35152196cc0ebf5118cd5ab48b6a65c9f3599dfc",
    "infoHashBuffer": {
      "type": "Buffer",
      "data": [
        53,
        21,
        33,
        150,
        204,
        14,
        191,
        81,
        24,
        205,
        90,
        180,
        139,
        106,
        101,
        201,
        243,
        89,
        157,
        252
      ]
    },
    "name": "The.Water.Diviner.2014.LIMITED.1080p.BluRay.H264.AAC-RARBG",
    "announce": [
      "udp://exodus.desync.com:6969",
      "udp://open.demonii.com:1337",
      "udp://tracker.coppersurfer.tk:6969",
      "udp://tracker.openbittorrent.com:80"
    ],
    "urlList": []
  },
  "previous": 59,
  "peers": 6,
  "last_updated": "2016-12-24T21:56:22.276Z"
}